<svg id="Ebene_1" data-name="Ebene 1" xmlns="http://www.w3.org/2000/svg" viewBox="0 0 20 19">
  <defs>
    <style>
      .cls-1 {
        fill: #1976d2;
      }

      .cls-2 {
        fill: #378fe7;
      }

      .cls-3 {
        fill: #fff;
      }

      .cls-4 {
        fill: #fdfeff;
      }
    </style>
  </defs>
  <title>work-session-icon-fertig</title>
  <path class="cls-1" d="M22,8.5a2,2,0,0,0-2-2H16v-2a2,2,0,0,0-2-2H10a2,2,0,0,0-2,2v2H4a2,2,0,0,0-2,2v11a2,2,0,0,0,2,2H9.43L22,11.84Zm-8-2H10v-2h4Z" transform="translate(-2 -2.5)"/>
  <path class="cls-2" d="M9.43,21.5H20a2,2,0,0,0,2-2V11.84Z" transform="translate(-2 -2.5)"/>
  <path class="cls-3" d="M12.28,11.42h-.85v3.41l2.7,1.62.43-.7-2.28-1.34Zm2-1.81a5.18,5.18,0,0,0-6.88,6.88,4.62,4.62,0,0,0,2.42,2.42A5.17,5.17,0,0,0,16.65,12,4.65,4.65,0,0,0,14.23,9.61Zm-.64,8.33a4,4,0,0,1-5.5-4.45,4,4,0,0,1,3.14-3.14,4,4,0,0,1,4.45,5.5A3.7,3.7,0,0,1,13.59,17.94Z" transform="translate(-2 -2.5)"/>
  <rect class="cls-4" x="6.05" y="9.19" width="3.67" height="1.06" rx="0.53" ry="0.53" transform="translate(-6.41 4.87) rotate(-40.12)"/>
  <rect class="cls-3" x="14.37" y="9.19" width="3.67" height="1.06" rx="0.53" ry="0.53" transform="translate(8.04 -10.65) rotate(40.01)"/>
</svg>
